#define shade_pressed_width 8
#define shade_pressed_height 8
static unsigned char shade_pressed_bits[] = {
   0x18, 0x3c, 0xff, 0x18, 0x18, 0xff, 0x3c, 0x18 };
